<svg width="512" height="512" viewBox="0 0 512 512" fill="none" xmlns="http://www.w3.org/2000/svg">
<g clip-path="url(#clip0_1_15)">
<rect width="512" height="512" rx="256" fill="#04060B"/>
<g clip-path="url(#clip1_1_15)">
<path d="M416.385 239.857V239.651H415.885C412.633 239.651 409.986 238.7 408.15 236.83C406.314 234.96 405.225 232.105 405.225 228.165V181.876C405.225 167.045 402.173 155.43 395.079 147.523C387.976 139.604 376.908 135.5 361.102 135.5H346.493H345.993V136V167.204V167.704H346.493H350.957C357.055 167.704 361.468 169.382 364.363 172.479C367.264 175.582 368.718 180.192 368.718 186.216V227.132C368.718 236.056 370.04 242.416 372.875 247.026C375.485 251.27 379.342 253.973 384.48 255.845C379.34 257.637 375.484 260.344 372.874 264.611C370.04 269.245 368.718 275.657 368.718 284.58V284.639V284.699V284.758V284.817V284.877V284.936V284.995V285.055V285.114V285.173V285.233V285.292V285.351V285.411V285.47V285.529V285.589V285.648V285.707V285.767V285.826V285.885V285.945V286.004V286.063V286.123V286.182V286.241V286.301V286.36V286.419V286.479V286.538V286.597V286.657V286.716V286.775V286.835V286.894V286.953V287.013V287.072V287.131V287.191V287.25V287.309V287.369V287.428V287.487V287.547V287.606V287.665V287.725V287.784V287.843V287.903V287.962V288.021V288.081V288.14V288.199V288.259V288.318V288.377V288.437V288.496V288.555V288.615V288.674V288.733V288.793V288.852V288.911V288.971V289.03V289.089V289.149V289.208V289.267V289.327V289.386V289.445V289.505V289.564V289.623V289.683V289.742V289.801V289.861V289.92V289.979V290.039V290.098V290.157V290.217V290.276V290.335V290.395V290.454V290.513V290.573V290.632V290.691V290.751V290.81V290.869V290.929V290.988V291.047V291.107V291.166V291.225V291.285V291.344V291.403V291.463V291.522V291.581V291.641V291.7V291.759V291.819V291.878V291.937V291.997V292.056V292.115V292.175V292.234V292.293V292.353V292.412V292.471V292.531V292.59V292.649V292.709V292.768V292.827V292.887V292.946V293.005V293.065V293.124V293.183V293.243V293.302V293.361V293.421V293.48V293.539V293.599V293.658V293.717V293.777V293.836V293.895V293.955V294.014V294.073V294.133V294.192V294.251V294.311V294.37V294.429V294.489V294.548V294.607V294.667V294.726V294.785V294.845V294.904V294.963V295.023V295.082V295.141V295.201V295.26V295.319V295.379V295.438V295.497V295.557V295.616V295.675V295.734V295.794V295.853V295.912V295.972V296.031V296.09V296.15V296.209V296.268V296.328V296.387V296.446V296.506V296.565V296.624V296.684V296.743V296.802V296.862V296.921V296.98V297.04V297.099V297.158V297.218V297.277V297.336V297.396V297.455V297.514V297.574V297.633V297.692V297.752V297.811V297.87V297.93V297.989V298.048V298.108V298.167V298.226V298.286V298.345V298.404V298.464V298.523V298.582V298.642V298.701V298.76V298.82V298.879V298.938V298.998V299.057V299.116V299.176V299.235V299.294V299.354V299.413V299.472V299.532V299.591V299.65V299.71V299.769V299.828V299.888V299.947V300.006V300.066V300.125V300.184V300.244V300.303V300.362V300.422V300.481V300.54V300.6V300.659V300.718V300.778V300.837V300.896V300.956V301.015V301.074V301.134V301.193V301.252V301.312V301.371V301.43V301.49V301.549V301.608V301.668V301.727V301.786V301.846V301.905V301.964V302.024V302.083V302.142V302.202V302.261V302.32V302.38V302.439V302.498V302.558V302.617V302.676V302.736V302.795V302.854V302.914V302.973V303.032V303.092V303.151V303.21V303.27V303.329V303.388V303.448V303.507V303.566V303.626V303.685V303.744V303.804V303.863V303.922V303.982V304.041V304.1V304.16V304.219V304.278V304.338V304.397V304.456V304.516V304.575V304.634V304.694V304.753V304.812V304.872V304.931V304.99V305.049V305.109V305.168V305.227V305.287V305.346V305.405V305.465V305.524V305.583V305.643V305.702V305.761V305.821V305.88V305.939V305.999V306.058V306.117V306.177V306.236V306.295V306.355V306.414V306.473V306.533V306.592V306.651V306.711V306.77V306.829V306.889V306.948V307.007V307.067V307.126V307.185V307.245V307.304V307.363V307.423V307.482V307.541V307.601V307.66V307.719V307.779V307.838V307.897V307.957V308.016V308.075V308.135V308.194V308.253V308.313V308.372V308.431V308.491V308.55V308.609V308.669V308.728V308.787V308.847V308.906V308.965V309.025V309.084V309.143V309.203V309.262V309.321V309.381V309.44V309.499V309.559V309.618V309.677V309.737V309.796V309.855V309.915V309.974V310.033V310.093V310.152V310.211V310.271V310.33V310.389V310.449V310.508V310.567V310.627V310.686V310.745V310.805V310.864V310.923V310.983V311.042V311.101V311.161V311.22V311.279V311.339V311.398V311.457V311.517V311.576V311.635V311.695V311.754V311.813V311.873V311.932V311.991V312.051V312.11V312.169V312.229V312.288V312.347V312.407V312.466V312.525V312.585V312.644V312.703V312.763V312.822V312.881V312.941V313V313.059V313.119V313.178V313.237V313.297V313.356V313.415V313.475V313.534V313.593V313.653V313.712V313.771V313.831V313.89V313.949V314.009V314.068V314.127V314.187V314.246V314.305V314.365V314.424V314.483V314.543V314.602V314.661V314.721V314.78V314.839V314.899V314.958C368.718 323.438 368.715 331.638 366.504 340.037C364.288 347.83 360.664 355.208 355.637 361.556L355.632 361.563C352.823 365.243 349.608 368.313 345.98 371.188L345.791 371.338V371.58V375.712V376.212H346.291H360.899C376.705 376.212 387.773 372.108 394.876 364.19C401.97 356.282 405.022 344.667 405.022 329.836V283.547C405.022 279.495 406.066 276.644 407.872 274.805C409.677 272.967 412.32 272.061 415.683 272.061H424H424.5V271.561V240.357V239.857H424H416.385Z" fill="white" stroke="#04060B"/>
<path d="M271.42 183.622H316.463C317.101 183.622 317.724 183.365 318.189 182.955C318.655 182.543 318.992 181.949 318.992 181.262V177.749C318.992 176.449 317.965 175.39 316.666 175.39H271.42C270.12 175.39 269.094 176.449 269.094 177.749V181.262C269.094 182.563 270.12 183.622 271.42 183.622Z" fill="white" stroke="#04060B"/>
<path d="M291.305 228.256H324.174C324.856 228.256 325.438 227.911 325.837 227.473C326.232 227.04 326.5 226.46 326.5 225.896V222.383C326.5 221.083 325.474 220.023 324.174 220.023H291.305C290.005 220.023 288.978 221.083 288.978 222.383V225.896C288.978 227.197 290.005 228.256 291.305 228.256Z" fill="white" stroke="#04060B"/>
<path d="M271.42 205.939H337.158C337.853 205.939 338.395 205.581 338.747 205.125C339.093 204.676 339.282 204.104 339.282 203.58V200.067C339.282 198.766 338.255 197.707 336.955 197.707H271.42C270.12 197.707 269.094 198.766 269.094 200.067V203.58C269.094 204.88 270.12 205.939 271.42 205.939Z" fill="white" stroke="#04060B"/>
<path d="M232.346 195.174L232.963 195.324V194.688V186.216C232.963 180.302 234.465 175.689 237.394 172.557C240.317 169.43 244.734 167.704 250.724 167.704H255.188H255.688V167.204V136V135.5H255.188H240.579C224.773 135.5 213.705 139.604 206.602 147.523C199.509 155.43 196.456 167.045 196.456 181.876V197.168V197.872L197.121 197.64C204.176 195.177 211.628 193.742 219.275 193.742C223.709 193.742 228.132 194.152 232.346 195.174Z" fill="white" stroke="#04060B"/>
<path d="M351.453 305.594L351.453 305.592C348.181 279.142 328.143 257.058 302.358 252.054C295.261 250.609 288.155 250.391 281.242 251.609C281.213 251.584 281.176 251.556 281.135 251.53C281.128 251.526 281.122 251.522 281.115 251.518C269.838 227.694 245.783 211.955 219.681 211.955C193.582 211.955 169.728 227.281 158.25 251.104C158.242 251.109 158.235 251.113 158.227 251.117C158.181 251.146 158.141 251.178 158.111 251.205C150.8 250.394 143.484 250.817 136.168 252.68C110.808 258.929 91.591 280.588 88.1136 306.823C87.7047 309.531 87.5 312.241 87.5 314.746C87.5 322.797 92.9119 330.284 100.915 331.359C110.757 332.85 119.344 325.17 119.138 315.361C119.138 313.907 119.139 312.293 119.336 310.889L119.336 310.889L119.337 310.88C120.935 297.862 130.725 286.873 143.507 283.821L143.515 283.82C147.511 282.802 151.5 282.601 155.283 283.209L155.283 283.21L155.296 283.211C167.881 284.892 180.269 278.38 185.64 267.017L185.641 267.015C189.461 258.824 195.477 251.692 203.464 247.828L203.465 247.828C212.273 243.546 222.279 242.936 231.484 246.197C241.079 249.658 248.291 256.992 252.709 266.193L252.708 266.193L252.715 266.205C253.153 267.059 253.571 267.893 253.978 268.704C255.718 272.172 257.247 275.22 259.215 277.609C261.681 280.601 264.84 282.575 269.931 283.211C272.006 283.527 275.894 283.629 279.764 283.629C283.644 283.629 287.551 283.526 289.693 283.422C297.896 283.425 306.07 286.279 311.842 292.154C315.636 296.223 318.428 301.306 319.626 306.993C321.423 316.153 319.223 325.303 313.837 332.21L313.837 332.211C310.041 337.094 304.854 340.747 299.082 342.369L299.077 342.37C296.301 343.178 293.513 343.383 290.695 343.383H290.686H290.676H290.666H290.657H290.647H290.638H290.628H290.619H290.609H290.599H290.59H290.58H290.57H290.561H290.551H290.541H290.531H290.522H290.512H290.502H290.492H290.482H290.473H290.463H290.453H290.443H290.433H290.423H290.413H290.404H290.394H290.384H290.374H290.364H290.354H290.344H290.334H290.324H290.314H290.304H290.294H290.284H290.273H290.263H290.253H290.243H290.233H290.223H290.213H290.202H290.192H290.182H290.172H290.162H290.151H290.141H290.131H290.12H290.11H290.1H290.089H290.079H290.069H290.058H290.048H290.038H290.027H290.017H290.006H289.996H289.985H289.975H289.964H289.954H289.943H289.933H289.922H289.912H289.901H289.891H289.88H289.869H289.859H289.848H289.837H289.827H289.816H289.805H289.795H289.784H289.773H289.762H289.752H289.741H289.73H289.719H289.709H289.698H289.687H289.676H289.665H289.654H289.643H289.633H289.622H289.611H289.6H289.589H289.578H289.567H289.556H289.545H289.534H289.523H289.512H289.501H289.49H289.479H289.467H289.456H289.445H289.434H289.423H289.412H289.401H289.389H289.378H289.367H289.356H289.345H289.333H289.322H289.311H289.299H289.288H289.277H289.266H289.254H289.243H289.231H289.22H289.209H289.197H289.186H289.174H289.163H289.152H289.14H289.129H289.117H289.106H289.094H289.083H289.071H289.059H289.048H289.036H289.025H289.013H289.002H288.99H288.978H288.967H288.955H288.943H288.932H288.92H288.908H288.896H288.885H288.873H288.861H288.849H288.838H288.826H288.814H288.802H288.79H288.778H288.767H288.755H288.743H288.731H288.719H288.707H288.695H288.683H288.671H288.659H288.647H288.635H288.623H288.611H288.599H288.587H288.575H288.563H288.551H288.539H288.527H288.515H288.502H288.49H288.478H288.466H288.454H288.442H288.429H288.417H288.405H288.393H288.38H288.368H288.356H288.344H288.331H288.319H288.307H288.294H288.282H288.27H288.257H288.245H288.233H288.22H288.208H288.195H288.183H288.17H288.158H288.145H288.133H288.12H288.108H288.095H288.083H288.07H288.058H288.045H288.033H288.02H288.007H287.995H287.982H287.969H287.957H287.944H287.931H287.919H287.906H287.893H287.881H287.868H287.855H287.842H287.83H287.817H287.804H287.791H287.778H287.766H287.753H287.74H287.727H287.714H287.701H287.688H287.675H287.662H287.65H287.637H287.624H287.611H287.598H287.585H287.572H287.559H287.546H287.533H287.52H287.507H287.493H287.48H287.467H287.454H287.441H287.428H287.415H287.402H287.388H287.375H287.362H287.349H287.336H287.322H287.309H287.296H287.283H287.269H287.256H287.243H287.23H287.216H287.203H287.19H287.176H287.163H287.15H287.136H287.123H287.109H287.096H287.083H287.069H287.056H287.042H287.029H287.015H287.002H286.988H286.975H286.961H286.948H286.934H286.921H286.907H286.894H286.88H286.866H286.853H286.839H286.826H286.812H286.798H286.785H286.771H286.757H286.743H286.73H286.716H286.702H286.689H286.675H286.661H286.647H286.634H286.62H286.606H286.592H286.578H286.564H286.551H286.537H286.523H286.509H286.495H286.481H286.467H286.453H286.439H286.426H286.412H286.398H286.384H286.37H286.356H286.342H286.328H286.314H286.3H286.285H286.271H286.257H286.243H286.229H286.215H286.201H286.187H286.173H286.159H286.144H286.13H286.116H286.102H286.088H286.073H286.059H286.045H286.031H286.017H286.002H285.988H285.974H285.959H285.945H285.931H285.917H285.902H285.888H285.873H285.859H285.845H285.83H285.816H285.802H285.787H285.773H285.758H285.744H285.729H285.715H285.7H285.686H285.671H285.657H285.642H285.628H285.613H285.599H285.584H285.57H285.555H285.541H285.526H285.511H285.497H285.482H285.467H285.453H285.438H285.423H285.409H285.394H285.379H285.365H285.35H285.335H285.321H285.306H285.291H285.276H285.261H285.247H285.232H285.217H285.202H285.187H285.173H285.158H285.143H285.128H285.113H285.098H285.083H285.068H285.054H285.039H285.024H285.009H284.994H284.979H284.964H284.949H284.934H284.919H284.904H284.889H284.874H284.859H284.844H284.829H284.814H284.798H284.783H284.768H284.753H284.738H284.723H284.708H284.693H284.677H284.662H284.647H284.632H284.617H284.602H284.586H284.571H284.556H284.541H284.525H284.51H284.495H284.48H284.464H284.449H284.434H284.418H284.403H284.388H284.372H284.357H284.342H284.326H284.311H284.295H284.28H284.265H284.249H284.234H284.218H284.203H284.155H284.107H284.059H284.011H283.962H283.914H283.865H283.816H283.766H283.717H283.667H283.617H283.567H283.517H283.466H283.416H283.365H283.314H283.262H283.211H283.159H283.107H283.055H283.003H282.95H282.898H282.845H282.792H282.738H282.685H282.631H282.577H282.523H282.469H282.415H282.36H282.305H282.25H282.195H282.14H282.084H282.029H281.973H281.917H281.86H281.804H281.747H281.691H281.634H281.576H281.519H281.462H281.404H281.346H281.288H281.23H281.171H281.113H281.054H280.995H280.936H280.877H280.817H280.758H280.698H280.638H280.578H280.517H280.457H280.396H280.336H280.275H280.213H280.152H280.091H280.029H279.967H279.905H279.843H279.781H279.718H279.656H279.593H279.53H279.467H279.404H279.34H279.277H279.213H279.149H279.085H279.021H278.957H278.892H278.828H278.763H278.698H278.633H278.568H278.502H278.437H278.371H278.305H278.239H278.173H278.107H278.041H277.974H277.907H277.84H277.773H277.706H277.639H277.572H277.504H277.436H277.368H277.301H277.232H277.164H277.096H277.027H276.959H276.89H276.821H276.752H276.683H276.613H276.544H276.474H276.404H276.335H276.265H276.194H276.124H276.054H275.983H275.913H275.842H275.771H275.7H275.629H275.558H275.486H275.415H275.343H275.271H275.2H275.128H275.055H274.983H274.911H274.838H274.766H274.693H274.62H274.547H274.474H274.401H274.328H274.255H274.181H274.107H274.034H273.96H273.886H273.812H273.738H273.663H273.589H273.515H273.44H273.365H273.291H273.216H273.141H273.066H272.99H272.915H272.84H272.764H272.688H272.613H272.537H272.461H272.385H272.309H272.233H272.156H272.08H272.003H271.927H271.85H271.773H271.696H271.619H271.542H271.465H271.388H271.311H271.233H271.156H271.078H271H270.923H270.845H270.767H270.689H270.611H270.533H270.454H270.376H270.297H270.219H270.14H270.062H269.983H269.904H269.825H269.746H269.667H269.588H269.509H269.429H269.35H269.27H269.191H269.111H269.032H268.952H268.872H268.792H268.712H268.632H268.552H268.472H268.392H268.311H268.231H268.151H268.07H267.989H267.909H267.828H267.747H267.667H267.586H267.505H267.424H267.343H267.262H267.18H267.099H267.018H266.936H266.855H266.774H266.692H266.611H266.529H266.447H266.365H266.284H266.202H266.12H266.038H265.956H265.874H265.792H265.71H265.628H265.545H265.463H265.381H265.298H265.216H265.134H265.051H264.968H264.886H264.803H264.721H264.638H264.555H264.472H264.39H264.307H264.224H264.141H264.058H263.975H263.892H263.809H263.726H263.643H263.559H263.476H263.393H263.31H263.226H263.143H263.06H262.976H262.893H262.809H262.726H262.643H262.559H262.475H262.392H262.308H262.225H262.141H262.057H261.974H261.89H261.806H261.723H261.639H261.555H261.471H261.387H261.304H261.22H261.136H261.052H260.968H260.884H260.8H260.717H260.633H260.549H260.465H260.381H260.297H260.213H260.129H260.045H259.961H259.877H259.793H259.709H259.625H259.541H259.457H259.373H259.289H259.205H259.121H259.037H258.953H258.869H258.785H258.7H258.616H258.532H258.448H258.364H258.28H258.196H258.112H258.028H257.944H257.86H257.777H257.693H257.609H257.525H257.441H257.357H257.273H257.189H257.105H257.021H256.938H256.854H256.77H256.686H256.602H256.519H256.435H256.351H256.267H256.184H256.1H256.016H255.933H255.849H255.766H255.682H255.599H255.515H255.432H255.348H255.265H255.181H255.098H255.015H254.931H254.848H254.765H254.682H254.599H254.515H254.432H254.349H254.266H254.183H254.1H254.017H253.934H253.851H253.769H253.686H253.603H253.52H253.438H253.355H253.272H253.19H253.107H253.025H252.943H252.86H252.778H252.696H252.613H252.531H252.449H252.367H252.285H252.203H252.121H252.039H251.957H251.875H251.794H251.712H251.63H251.549H251.467H251.386H251.304H251.223H251.142H251.06H250.979H250.898H250.817H250.736H250.655H250.574H250.493H250.412H250.332H250.251H250.171H250.09H250.01H249.929H249.849H249.769H249.688H249.608H249.528H249.448H249.368H249.289H249.209H249.129H249.049H248.97H248.89H248.811H248.732H248.652H248.573H248.494H248.415H248.336H248.257H248.179H248.1H248.021H247.943H247.864H247.786H247.708H247.629H247.551H247.473H247.395H247.317H247.24H247.162H247.084H247.007H246.929H246.852H246.775H246.697H246.62H246.543H246.466H246.39H246.313H246.236H246.16H246.083H246.007H245.931H245.855C237.212 343.383 230.326 336.383 230.326 327.558V296.974V267.01C230.326 264.263 228.082 261.964 225.362 261.964L219.072 261.964L219.064 261.964C212.678 262.07 206.967 265.747 202.871 271.231C198.773 276.718 196.254 284.056 196.254 291.601V291.688V291.776V291.865V291.954V292.044V292.134V292.225V292.316V292.408V292.5V292.593V292.687V292.781V292.875V292.97V293.066V293.162V293.259V293.356V293.453V293.551V293.65V293.749V293.849V293.949V294.05V294.151V294.252V294.354V294.457V294.56V294.663V294.767V294.872V294.977V295.082V295.188V295.294V295.401V295.508V295.616V295.724V295.832V295.941V296.051V296.16V296.271V296.381V296.492V296.604V296.716V296.828V296.941V297.054V297.168V297.282V297.396V297.511V297.626V297.742V297.858V297.974V298.091V298.208V298.326V298.444V298.562V298.681V298.8V298.919V299.039V299.159V299.279V299.4V299.521V299.643V299.765V299.887V300.009V300.132V300.255V300.379V300.503V300.627V300.752V300.876V301.002V301.127V301.253V301.379V301.505V301.632V301.759V301.886V302.014V302.142V302.27V302.398V302.527V302.656V302.785V302.915V303.045V303.175V303.305V303.436V303.567V303.698V303.829V303.961V304.093V304.225V304.357V304.49V304.623V304.756V304.889V305.023V305.157V305.291V305.425V305.559V305.694V305.829V305.964V306.099V306.234V306.37V306.506V306.642V306.778V306.915V307.051V307.188V307.325V307.462V307.6V307.737V307.875V308.013V308.151V308.289V308.427V308.566V308.704V308.843V308.982V309.121V309.26V309.399V309.539V309.678V309.818V309.958V310.098V310.238V310.378V310.519V310.659V310.799V310.94V311.081V311.222V311.363V311.504V311.645V311.786V311.927V312.069V312.21V312.352V312.493V312.635V312.777V312.918V313.06V313.202V313.344V313.486V313.628V313.77V313.912V314.055V314.197V314.339V314.482V314.624V314.766V314.909V315.051V315.194V315.336V315.478V315.621V315.763V315.906V316.048V316.191V316.333V316.476V316.618V316.761V316.903V317.046V317.188V317.33V317.473V317.615V317.757V317.9V318.042V318.184V318.326V318.468V318.61V318.752V318.894V319.036V319.178V319.32V319.461V319.603V319.744V319.886V320.027V320.169V320.31V320.451V320.592V320.733V320.874V321.014V321.155V321.296V321.436V321.576V321.717V321.857V321.997V322.136V322.276V322.416V322.555V322.695V322.834V322.973V323.112V323.251V323.389V323.528V323.666V323.804V323.942V324.08V324.218V324.355V324.493V324.63V324.767V324.903V325.04V325.177V325.313V325.449V325.585V325.72V325.856V325.991V326.126V326.261V326.396V326.53V326.665V326.799V326.932V327.066V327.199V327.332V327.465V327.598V327.73V327.862V327.994V328.126V328.257V328.389V328.519V328.65V328.78V328.911V329.04V329.17V329.299V329.428V329.557V329.686V329.814V329.942V330.069V330.197V330.324V330.45V330.577V330.703V330.829V330.954V331.079V331.204V331.329V331.453V331.577V331.7V331.824V331.947V332.069V332.191V332.313V332.435V332.556V332.677V332.797V332.917V333.037V333.157V333.276V333.394V333.513V333.631V333.748V333.865V333.982V334.099V334.215V334.33V334.445V334.56V334.675V334.789V334.902V335.016V335.129V335.241V335.353V335.464V335.576V335.686V335.797V335.906V336.016V336.125V336.233V336.342V336.449V336.556V336.663V336.77V336.875V336.981V337.086V337.19V337.294V337.398V337.501V337.603V337.705V337.807V337.908V338.009V338.109V338.209V338.308V338.406V338.505V338.602V338.699V338.796V338.892V338.988V339.083V339.177V339.271V339.365V339.458V339.55V339.642V339.734V339.824V339.915V340.005V340.094V340.182V340.27V340.358V340.445V340.531V340.617V340.702V340.787V340.871V340.955V341.037V341.12V341.202V341.283V341.363V341.443V341.523V341.601V341.68V341.757V341.834V341.91V341.986V342.061V342.136V342.209V342.283V342.355V342.427V342.499V342.569V342.639V342.709V342.777V342.845V342.913V342.98V343.046V343.111V343.176V343.24V343.304V343.366V343.428V343.49V343.551V343.611V343.67V343.729V343.787V343.844V343.9V343.956V344.011V344.066V344.12V344.173V344.225V344.277V344.327V344.378V344.427V344.476V344.524V344.571V344.617V344.663V344.708V344.752V344.796V344.839V344.88V344.922V344.962V345.002V345.041V345.079V345.116V345.153V345.189V345.224V345.258V345.291V345.324V345.356V345.387V345.417V345.447V345.475V345.503V345.53V345.556V345.582V345.606V345.63V345.653V345.675V345.697V345.717V345.737V345.755V345.773V345.79V345.807V345.822V345.836V345.85V345.863V345.875V345.886V345.896V345.905V345.914V345.921V345.928V345.934V345.939V345.943V345.946V345.948V345.95C196.254 345.95 196.254 345.95 196.754 345.95H196.254C196.254 362.336 209.251 375.587 225.362 375.587H225.364L225.362 375.087C225.364 375.587 225.364 375.587 225.365 375.587L225.367 375.587L225.377 375.587L225.415 375.587L225.566 375.587L226.155 375.585L228.391 375.578L236.38 375.555L260.693 375.484C278.423 375.432 296.276 375.38 296.782 375.38H296.808L296.833 375.378C313.203 373.711 328.34 365.168 338.565 352.046C348.797 339.332 353.497 322.665 351.453 305.594Z" fill="white" stroke="#04060B"/>
</g>
</g>
<defs>
<clipPath id="clip0_1_15">
<rect width="512" height="512" fill="white"/>
</clipPath>
<clipPath id="clip1_1_15">
<rect width="336" height="240" fill="white" transform="translate(88 136)"/>
</clipPath>
</defs>
</svg>
