<svg width="52" height="52" viewBox="0 3 52 52" fill="none" xmlns="http://www.w3.org/2000/svg">
<path d="M13.1172 13.6971C20.711 13.6972 24.9685 17.255 25.1123 22.492L18.5537 22.6912C18.3811 19.7882 15.7779 17.8815 13.1172 17.9383C9.46402 18.0094 6.75977 20.4144 6.75977 24.2283C6.75986 28.0422 9.46408 30.4041 13.1172 30.4041C15.7779 30.404 18.3237 28.5826 18.6113 25.6795L25.1699 25.8221C24.9973 31.1444 20.4809 34.7595 13.1172 34.7596C5.75339 34.7596 0.000113754 30.6322 0 24.2283C0 17.7958 5.5232 13.6971 13.1172 13.6971ZM45.5742 14.3192V34.243H28.3154V14.3192H45.5742Z" fill="#000"/>
</svg>
