<svg width="52" height="52" viewBox="0 0 52 52" fill="none" xmlns="http://www.w3.org/2000/svg">
<path d="M13.1172 13.6971C20.711 13.6972 24.9685 17.255 25.1123 22.492L18.5537 22.6912C18.3811 19.7882 15.7779 17.8815 13.1172 17.9383C9.46402 18.0094 6.75977 20.4144 6.75977 24.2283C6.75986 28.0422 9.46408 30.4041 13.1172 30.4041C15.7779 30.404 18.3237 28.5826 18.6113 25.6795L25.1699 25.8221C24.9973 31.1444 20.4809 34.7595 13.1172 34.7596C5.75339 34.7596 0.000113754 30.6322 0 24.2283C0 17.7958 5.5232 13.6971 13.1172 13.6971ZM45.5742 14.3192V34.243H28.3154V14.3192H45.5742Z" fill="#FAFAFA"/>
<path d="M43.0058 34.822V32.6382H40.822M37.5464 38.0976H38.6383M47.3734 38.0976H48.4653M44.6437 37.5517V38.6436M41.368 37.5517V38.6436M39.7302 34.822H46.2815C46.8845 34.822 47.3734 35.3108 47.3734 35.9138V40.2814C47.3734 40.8844 46.8845 41.3733 46.2815 41.3733H39.7302C39.1271 41.3733 38.6383 40.8844 38.6383 40.2814V35.9138C38.6383 35.3108 39.1271 34.822 39.7302 34.822Z" stroke="#FAFAFA" stroke-width="0.818915" stroke-linecap="round" stroke-linejoin="round"/>
</svg>
