<svg width="53" height="52" viewBox="0 0 53 52" fill="none" xmlns="http://www.w3.org/2000/svg">
<defs>
  <mask id="m">
    <rect fill="white" width="53" height="52"/>
    <rect fill="black" x="34.2916" y="27.2916" width="17.4382" height="17.4382" rx="1.4044"/>
  </mask>
</defs>
<!-- C[] with bot card area cut out -->
<path d="M13.1172 13.6971C20.711 13.6972 24.9685 17.255 25.1123 22.492L18.5537 22.6912C18.3811 19.7882 15.7779 17.8815 13.1172 17.9383C9.46402 18.0094 6.75977 20.4144 6.75977 24.2283C6.75986 28.0422 9.46408 30.4041 13.1172 30.4041C15.7779 30.404 18.3237 28.5826 18.6113 25.6795L25.1699 25.8221C24.9973 31.1444 20.4809 34.7595 13.1172 34.7596C5.75339 34.7596 0.000113754 30.6322 0 24.2283C0 17.7958 5.5232 13.6971 13.1172 13.6971ZM45.5742 14.3192V34.243H28.3154V14.3192H45.5742Z" fill="#000" mask="url(#m)"/>
<!-- Bot -->
<path d="M43.0054 33.5518V31.0983H40.5519M36.8716 37.2321H38.0983M47.9124 37.2321H49.1392M44.8455 36.6187V37.8455M41.1652 36.6187V37.8455M39.3251 33.5518H46.6857C47.3632 33.5518 47.9124 34.1011 47.9124 34.7786V39.6856C47.9124 40.3632 47.3632 40.9124 46.6857 40.9124H39.3251C38.6476 40.9124 38.0983 40.3632 38.0983 39.6856V34.7786C38.0983 34.1011 38.6476 33.5518 39.3251 33.5518Z" stroke="#000" stroke-width="1.4" stroke-linecap="round" stroke-linejoin="round"/>
</svg>
